<?xml version="1.0" encoding="UTF-8"?>
<!DOCTYPE svg PUBLIC "-//W3C//DTD SVG 1.1//EN" "http://www.w3.org/Graphics/SVG/1.1/DTD/svg11.dtd">
<!-- Creator: CorelDRAW 2017 -->
<svg xmlns="http://www.w3.org/2000/svg" xml:space="preserve" width="547px" height="158px" version="1.1" style="shape-rendering:geometricPrecision; text-rendering:geometricPrecision; image-rendering:optimizeQuality; fill-rule:evenodd; clip-rule:evenodd"
viewBox="0 0 12550 3618"
 xmlns:xlink="http://www.w3.org/1999/xlink">
 <defs>
  <style type="text/css">
   <![CDATA[
    .fil1 {fill:black}
    .fil0 {fill:black;fill-rule:nonzero}
   ]]>
  </style>
 </defs>
 <g id="Ringe_Beschneidungsbalken">
  <metadata id="CorelCorpID_0Corel-Layer"/>
  <path id="StudierendenRat" class="fil0" d="M3362 1564c0,47 -8,87 -26,123 -17,35 -41,64 -71,88 -30,24 -64,41 -104,53 -40,12 -83,18 -128,18 -31,0 -59,-2 -86,-8 -26,-5 -50,-11 -70,-18 -20,-7 -37,-15 -50,-23 -14,-8 -24,-15 -30,-20 -6,-7 -10,-15 -12,-27 -3,-11 -4,-27 -4,-48 0,-14 0,-26 1,-36 1,-9 3,-17 5,-23 2,-6 5,-10 8,-13 3,-2 7,-3 12,-3 6,0 16,3 27,11 12,8 27,16 45,25 19,9 41,18 66,25 26,8 55,12 89,12 22,0 42,-3 59,-8 18,-5 32,-13 44,-22 13,-10 22,-22 28,-36 7,-14 10,-29 10,-47 0,-20 -5,-37 -16,-52 -11,-14 -26,-27 -44,-38 -17,-11 -37,-22 -60,-32 -22,-10 -45,-20 -69,-31 -24,-11 -47,-23 -70,-38 -22,-13 -42,-30 -60,-50 -18,-19 -32,-42 -43,-69 -11,-26 -17,-58 -17,-95 0,-43 8,-80 24,-113 16,-32 37,-59 64,-80 27,-21 58,-37 95,-48 36,-10 75,-15 116,-15 20,0 42,1 63,4 21,3 41,8 59,13 18,6 34,12 49,19 14,7 23,13 28,17 4,5 7,9 9,12 2,3 3,7 4,13 1,5 2,11 2,20 1,8 1,17 1,29 0,14 0,25 -1,34 0,9 -2,17 -3,23 -2,6 -4,10 -7,13 -3,2 -7,4 -12,4 -5,0 -13,-3 -24,-10 -11,-6 -25,-13 -41,-21 -16,-7 -35,-14 -56,-20 -21,-7 -44,-10 -69,-10 -20,0 -37,3 -52,8 -14,4 -26,11 -36,20 -10,8 -18,18 -22,30 -5,12 -8,25 -8,38 0,20 6,37 17,51 10,14 25,27 43,39 18,11 39,21 62,31 22,10 46,21 70,31 24,11 47,24 70,38 23,14 43,31 61,50 18,20 33,42 44,69 11,26 16,57 16,93z"/>
  <path id="1" class="fil0" d="M3853 1747c0,20 -1,36 -4,47 -2,10 -6,18 -10,22 -4,5 -10,9 -18,12 -8,3 -17,6 -28,9 -11,2 -22,4 -35,6 -13,1 -25,2 -38,2 -35,0 -64,-5 -90,-13 -25,-9 -46,-22 -62,-40 -17,-19 -29,-41 -37,-69 -8,-27 -12,-60 -12,-98l0 -314 -74 0c-9,0 -15,-5 -20,-16 -5,-11 -7,-29 -7,-54 0,-14 1,-25 2,-34 1,-9 3,-16 5,-22 2,-5 5,-9 9,-11 3,-2 7,-4 12,-4l73 0 0 -137c0,-4 2,-8 4,-12 3,-4 8,-7 14,-9 7,-3 16,-5 27,-6 11,-1 25,-2 42,-2 17,0 31,1 42,2 11,1 20,3 27,6 6,2 11,5 13,9 3,4 5,8 5,12l0 137 133 0c4,0 8,2 12,4 3,2 6,6 8,11 3,6 4,13 5,22 2,9 2,20 2,34 0,25 -2,43 -7,54 -4,11 -11,16 -20,16l-133 0 0 288c0,34 5,59 15,76 11,16 30,25 57,25 9,0 17,-1 24,-3 8,-1 14,-3 20,-5 6,-2 10,-4 14,-6 4,-1 8,-2 11,-2 3,0 5,1 8,2 2,2 4,5 6,10 1,5 2,11 3,20 2,8 2,18 2,31z"/>
  <path id="2" class="fil0" d="M4559 1807c0,5 -1,9 -3,12 -2,4 -6,7 -12,9 -6,2 -13,4 -23,5 -9,1 -21,2 -35,2 -15,0 -28,-1 -37,-2 -9,-1 -17,-3 -22,-5 -6,-2 -10,-5 -12,-9 -2,-3 -3,-7 -3,-12l0 -70c-34,36 -69,63 -104,82 -35,18 -72,27 -109,27 -42,0 -78,-7 -107,-20 -28,-14 -51,-33 -69,-57 -18,-24 -30,-51 -38,-83 -8,-31 -11,-70 -11,-117l0 -375c0,-5 1,-9 3,-12 3,-4 8,-7 14,-9 7,-2 16,-4 27,-5 12,-1 25,-2 42,-2 17,0 31,1 42,2 11,1 20,3 27,5 6,2 11,5 14,9 2,3 4,7 4,12l0 346c0,32 2,57 6,74 4,17 11,31 19,43 8,13 19,22 32,29 13,6 29,10 46,10 22,0 44,-8 67,-24 22,-16 45,-40 71,-70l0 -408c0,-5 1,-9 3,-12 3,-4 7,-7 14,-9 7,-2 16,-4 26,-5 12,-1 26,-2 42,-2 17,0 31,1 42,2 11,1 20,3 27,5 6,2 11,5 13,9 3,3 4,7 4,12l0 613z"/>
  <path id="3" class="fil0" d="M5315 1807c0,5 -1,10 -4,13 -2,4 -6,6 -11,9 -6,2 -13,4 -23,5 -9,0 -21,1 -34,1 -15,0 -27,-1 -36,-1 -9,-1 -16,-3 -22,-5 -6,-3 -10,-6 -13,-9 -2,-3 -4,-8 -4,-13l0 -68c-31,34 -64,60 -99,79 -35,19 -73,28 -115,28 -47,0 -86,-9 -118,-27 -33,-18 -59,-42 -80,-73 -20,-31 -35,-67 -44,-108 -9,-41 -14,-84 -14,-129 0,-55 6,-104 18,-147 12,-44 28,-81 51,-112 23,-30 50,-54 84,-70 33,-17 72,-25 115,-25 35,0 66,7 94,21 28,14 56,34 83,61l0 -331c0,-5 1,-9 4,-13 2,-3 7,-6 14,-9 6,-2 15,-4 26,-6 11,-1 25,-2 42,-2 17,0 31,1 42,2 11,2 20,4 26,6 6,3 11,6 14,9 2,4 4,8 4,13l0 901zm-172 -409c-25,-32 -48,-55 -71,-72 -23,-16 -46,-25 -71,-25 -23,0 -42,6 -58,17 -17,12 -30,26 -39,45 -10,19 -18,40 -22,63 -5,23 -8,47 -8,71 0,26 2,51 6,75 5,24 11,46 21,65 9,19 22,34 37,46 16,11 35,17 59,17 12,0 24,-2 35,-5 11,-4 23,-9 34,-17 12,-8 24,-18 37,-31 12,-12 26,-28 40,-46l0 -203z"/>
  <path id="4" class="fil0" d="M5662 1807c0,5 -1,9 -4,12 -3,4 -7,7 -14,9 -7,2 -16,4 -26,5 -12,1 -26,2 -42,2 -17,0 -31,-1 -42,-2 -11,-1 -20,-3 -27,-5 -7,-2 -11,-5 -14,-9 -3,-3 -4,-7 -4,-12l0 -612c0,-4 1,-8 4,-12 3,-3 7,-6 14,-9 7,-2 16,-4 27,-6 11,-1 25,-2 42,-2 16,0 30,1 42,2 10,2 19,4 26,6 7,3 11,6 14,9 3,4 4,8 4,12l0 612zm14 -822c0,35 -7,59 -21,73 -14,13 -41,20 -79,20 -39,0 -66,-7 -79,-20 -14,-13 -21,-36 -21,-69 0,-35 7,-59 21,-73 14,-13 41,-20 80,-20 38,0 65,7 79,20 13,13 20,36 20,69z"/>
  <path id="5" class="fil0" d="M6401 1483c0,21 -5,37 -14,47 -10,10 -23,15 -39,15l-374 0c0,26 3,49 10,71 6,21 16,39 29,54 13,15 31,26 52,34 22,7 47,11 77,11 30,0 56,-2 79,-6 23,-5 43,-9 60,-15 16,-5 30,-10 41,-14 11,-5 20,-7 27,-7 4,0 8,1 10,2 3,2 6,5 7,9 2,4 4,10 4,17 1,8 1,18 1,29 0,10 0,19 -1,26 0,7 -1,13 -2,18 -1,5 -2,9 -4,12 -2,4 -4,7 -7,10 -3,4 -11,8 -24,14 -14,5 -31,11 -51,16 -21,5 -44,10 -71,14 -26,4 -55,6 -85,6 -55,0 -102,-7 -143,-20 -41,-14 -75,-35 -103,-63 -28,-28 -48,-63 -62,-106 -13,-42 -20,-92 -20,-150 0,-54 7,-103 22,-147 14,-44 34,-81 61,-111 27,-31 60,-54 99,-70 39,-16 83,-24 131,-24 52,0 95,7 132,23 36,15 66,36 90,63 23,26 40,58 51,95 11,36 17,76 17,120l0 27zm-168 -49c2,-49 -8,-87 -29,-115 -21,-28 -53,-42 -97,-42 -22,0 -41,5 -57,13 -17,8 -30,19 -41,33 -11,14 -19,31 -25,50 -6,19 -9,39 -10,61l259 0z"/>
  <path id="6" class="fil0" d="M6938 1251c0,16 -1,30 -2,41 -1,10 -2,18 -4,24 -1,6 -4,10 -7,13 -3,2 -7,3 -11,3 -4,0 -8,-1 -13,-2 -4,-2 -9,-4 -15,-6 -6,-1 -12,-3 -19,-5 -7,-1 -15,-2 -23,-2 -9,0 -19,2 -29,6 -9,4 -19,10 -30,18 -10,8 -21,19 -32,33 -11,14 -23,31 -36,51l0 382c0,5 -2,9 -4,12 -3,4 -8,7 -15,9 -6,2 -15,4 -26,5 -11,1 -25,2 -42,2 -17,0 -31,-1 -42,-2 -11,-1 -20,-3 -26,-5 -7,-2 -12,-5 -14,-9 -3,-3 -4,-7 -4,-12l0 -613c0,-5 1,-9 3,-12 2,-4 6,-7 12,-9 6,-2 14,-4 23,-5 10,-1 22,-2 36,-2 15,0 27,1 36,2 10,1 17,3 23,5 5,2 9,5 11,9 2,3 3,7 3,12l0 76c16,-23 32,-42 46,-56 14,-15 28,-27 40,-36 13,-8 26,-15 39,-18 13,-3 26,-5 38,-5 6,0 13,0 20,1 7,1 14,2 21,3 7,2 14,4 19,6 6,2 10,4 13,6 2,3 4,5 5,8 1,3 2,6 3,11 1,5 2,12 2,22 1,10 1,23 1,39z"/>
  <path id="7" class="fil0" d="M7594 1483c0,21 -4,37 -14,47 -9,10 -22,15 -39,15l-373 0c0,26 3,49 9,71 6,21 16,39 29,54 14,15 31,26 53,34 21,7 46,11 76,11 31,0 57,-2 80,-6 23,-5 43,-9 59,-15 17,-5 31,-10 42,-14 11,-5 20,-7 27,-7 4,0 7,1 10,2 3,2 5,5 7,9 2,4 3,10 4,17 0,8 1,18 1,29 0,10 -1,19 -1,26 0,7 -1,13 -2,18 -1,5 -2,9 -4,12 -2,4 -4,7 -7,10 -3,4 -11,8 -25,14 -13,5 -30,11 -51,16 -20,5 -44,10 -70,14 -27,4 -55,6 -85,6 -55,0 -103,-7 -144,-20 -41,-14 -75,-35 -103,-63 -27,-28 -47,-63 -61,-106 -13,-42 -20,-92 -20,-150 0,-54 7,-103 21,-147 14,-44 35,-81 62,-111 27,-31 60,-54 99,-70 39,-16 82,-24 131,-24 51,0 95,7 131,23 37,15 67,36 90,63 23,26 41,58 52,95 11,36 16,76 16,120l0 27zm-167 -49c1,-49 -9,-87 -30,-115 -20,-28 -53,-42 -96,-42 -22,0 -42,5 -58,13 -16,8 -30,19 -41,33 -10,14 -19,31 -24,50 -6,19 -9,39 -10,61l259 0z"/>
  <path id="8" class="fil0" d="M8323 1807c0,5 -2,9 -4,12 -3,4 -8,7 -14,9 -7,2 -16,4 -27,5 -11,1 -25,2 -41,2 -17,0 -31,-1 -43,-2 -11,-1 -20,-3 -27,-5 -6,-2 -11,-5 -13,-9 -3,-3 -4,-7 -4,-12l0 -349c0,-30 -2,-54 -7,-71 -4,-17 -10,-31 -19,-43 -8,-12 -19,-22 -32,-29 -13,-6 -28,-9 -45,-9 -22,0 -44,8 -67,24 -22,16 -46,39 -70,70l0 407c0,5 -1,9 -4,12 -2,4 -7,7 -14,9 -7,2 -15,4 -26,5 -11,1 -25,2 -42,2 -17,0 -31,-1 -42,-2 -11,-1 -20,-3 -27,-5 -6,-2 -11,-5 -14,-9 -2,-3 -4,-7 -4,-12l0 -613c0,-5 1,-9 4,-12 2,-4 6,-7 12,-9 6,-2 14,-4 23,-5 9,-1 21,-2 35,-2 15,0 27,1 37,2 9,1 17,3 22,5 5,2 9,5 11,9 3,3 4,7 4,12l0 71c34,-37 68,-64 103,-83 35,-18 72,-27 110,-27 42,0 77,7 106,21 28,13 51,32 69,56 18,23 30,51 38,83 8,31 12,69 12,114l0 378z"/>
  <path id="9" class="fil0" d="M9074 1807c0,5 -1,10 -3,13 -3,4 -7,6 -12,9 -6,2 -13,4 -22,5 -10,0 -21,1 -35,1 -15,0 -27,-1 -36,-1 -9,-1 -16,-3 -22,-5 -6,-3 -10,-6 -12,-9 -3,-3 -4,-8 -4,-13l0 -68c-32,34 -65,60 -100,79 -34,19 -73,28 -115,28 -46,0 -86,-9 -118,-27 -33,-18 -59,-42 -79,-73 -21,-31 -36,-67 -45,-108 -9,-41 -14,-84 -14,-129 0,-55 6,-104 18,-147 12,-44 29,-81 51,-112 23,-30 51,-54 84,-70 34,-17 72,-25 116,-25 34,0 65,7 93,21 28,14 56,34 83,61l0 -331c0,-5 2,-9 4,-13 3,-3 7,-6 14,-9 7,-2 15,-4 26,-6 11,-1 25,-2 42,-2 17,0 31,1 42,2 11,2 20,4 26,6 7,3 11,6 14,9 3,4 4,8 4,13l0 901zm-172 -409c-24,-32 -48,-55 -71,-72 -23,-16 -46,-25 -71,-25 -22,0 -42,6 -58,17 -16,12 -29,26 -39,45 -10,19 -18,40 -22,63 -5,23 -8,47 -8,71 0,26 3,51 7,75 4,24 11,46 20,65 9,19 22,34 37,46 16,11 36,17 60,17 11,0 23,-2 34,-5 12,-4 23,-9 35,-17 11,-8 23,-18 36,-31 12,-12 26,-28 40,-46l0 -203z"/>
  <path id="10" class="fil0" d="M9814 1483c0,21 -5,37 -14,47 -9,10 -22,15 -39,15l-373 0c0,26 3,49 9,71 6,21 16,39 29,54 14,15 31,26 53,34 21,7 46,11 76,11 30,0 57,-2 80,-6 23,-5 43,-9 59,-15 17,-5 31,-10 42,-14 11,-5 20,-7 26,-7 5,0 8,1 11,2 3,2 5,5 7,9 1,4 3,10 4,17 0,8 1,18 1,29 0,10 -1,19 -1,26 -1,7 -1,13 -2,18 -1,5 -2,9 -4,12 -2,4 -4,7 -8,10 -3,4 -11,8 -24,14 -13,5 -30,11 -51,16 -20,5 -44,10 -70,14 -27,4 -55,6 -86,6 -54,0 -102,-7 -143,-20 -41,-14 -75,-35 -103,-63 -27,-28 -48,-63 -61,-106 -14,-42 -20,-92 -20,-150 0,-54 7,-103 21,-147 14,-44 35,-81 62,-111 27,-31 60,-54 98,-70 39,-16 83,-24 132,-24 51,0 95,7 131,23 37,15 67,36 90,63 23,26 41,58 52,95 11,36 16,76 16,120l0 27zm-167 -49c1,-49 -9,-87 -30,-115 -21,-28 -53,-42 -96,-42 -22,0 -42,5 -58,13 -16,8 -30,19 -41,33 -11,14 -19,31 -24,50 -6,19 -10,39 -10,61l259 0z"/>
  <path id="11" class="fil0" d="M10543 1807c0,5 -2,9 -5,12 -2,4 -7,7 -13,9 -7,2 -16,4 -27,5 -11,1 -25,2 -41,2 -18,0 -32,-1 -43,-2 -11,-1 -20,-3 -27,-5 -6,-2 -11,-5 -13,-9 -3,-3 -5,-7 -5,-12l0 -349c0,-30 -2,-54 -6,-71 -4,-17 -11,-31 -19,-43 -8,-12 -19,-22 -32,-29 -13,-6 -28,-9 -45,-9 -22,0 -44,8 -67,24 -22,16 -46,39 -70,70l0 407c0,5 -1,9 -4,12 -3,4 -7,7 -14,9 -7,2 -16,4 -26,5 -11,1 -26,2 -42,2 -17,0 -31,-1 -42,-2 -11,-1 -20,-3 -27,-5 -7,-2 -11,-5 -14,-9 -3,-3 -4,-7 -4,-12l0 -613c0,-5 1,-9 4,-12 2,-4 6,-7 12,-9 6,-2 13,-4 23,-5 9,-1 21,-2 35,-2 15,0 27,1 37,2 9,1 17,3 22,5 5,2 9,5 11,9 3,3 4,7 4,12l0 71c34,-37 68,-64 103,-83 35,-18 72,-27 110,-27 42,0 77,7 105,21 29,13 52,32 70,56 17,23 30,51 38,83 8,31 12,69 12,114l0 378z"/>
  <path id="12" class="fil0" d="M11383 1807c0,5 -1,10 -3,13 -2,4 -6,6 -13,9 -7,2 -17,4 -30,5 -14,0 -32,1 -55,1 -19,0 -34,-1 -46,-1 -11,-1 -20,-3 -27,-6 -6,-2 -11,-5 -14,-9 -2,-4 -5,-9 -7,-14l-80 -200c-10,-22 -19,-42 -28,-60 -9,-17 -20,-32 -31,-43 -11,-12 -24,-21 -39,-27 -15,-6 -32,-9 -51,-9l-56 0 0 340c0,5 -2,9 -5,12 -3,4 -8,7 -15,9 -6,3 -16,4 -27,6 -11,1 -26,2 -44,2 -17,0 -32,-1 -43,-2 -12,-2 -21,-3 -28,-6 -7,-2 -12,-5 -14,-8 -3,-4 -5,-8 -5,-13l0 -808c0,-20 6,-35 16,-44 10,-9 23,-13 38,-13l230 0c23,0 43,0 58,1 15,1 29,3 41,4 36,5 68,14 97,26 28,12 53,28 73,48 20,20 35,44 45,71 11,27 16,58 16,94 0,29 -4,57 -11,81 -8,25 -19,46 -34,66 -14,19 -32,36 -54,50 -21,14 -46,25 -74,34 14,6 26,14 38,23 12,9 23,21 33,34 10,13 20,28 29,45 10,16 18,35 27,56l75 176c7,18 12,30 14,38 2,8 4,15 4,19zm-234 -604c0,-29 -7,-54 -20,-74 -13,-20 -35,-34 -65,-43 -10,-2 -20,-4 -32,-5 -11,-1 -28,-2 -48,-2l-81 0 0 252 92 0c26,0 48,-3 67,-9 20,-7 36,-15 48,-26 13,-11 23,-25 29,-41 7,-15 10,-32 10,-52z"/>
  <path id="13" class="fil0" d="M12027 1810c0,6 -2,11 -6,15 -5,3 -12,6 -22,8 -10,1 -25,2 -44,2 -21,0 -36,-1 -45,-2 -10,-2 -16,-5 -20,-8 -4,-4 -6,-9 -6,-15l0 -49c-25,27 -54,48 -86,63 -32,15 -68,22 -108,22 -32,0 -62,-4 -89,-12 -28,-9 -51,-22 -71,-38 -20,-17 -36,-38 -47,-62 -11,-25 -16,-54 -16,-87 0,-36 7,-67 21,-93 14,-27 35,-48 63,-66 27,-17 62,-29 103,-38 41,-8 89,-12 143,-12l60 0 0 -37c0,-19 -2,-36 -6,-51 -4,-14 -10,-26 -19,-36 -9,-10 -21,-17 -36,-21 -15,-5 -33,-7 -55,-7 -29,0 -55,3 -77,10 -23,6 -43,13 -60,21 -18,8 -32,15 -44,21 -12,7 -21,10 -28,10 -5,0 -10,-2 -14,-5 -4,-3 -7,-8 -9,-14 -3,-6 -5,-13 -6,-22 -1,-8 -2,-18 -2,-28 0,-15 1,-26 3,-34 2,-8 7,-16 13,-22 7,-7 18,-14 34,-22 16,-8 35,-16 56,-23 22,-7 45,-12 71,-16 25,-5 52,-7 79,-7 48,0 89,5 123,14 34,9 62,24 84,43 22,20 38,45 48,76 10,30 15,67 15,109l0 413zm-170 -264l-66 0c-28,0 -52,2 -71,6 -20,5 -36,11 -48,19 -13,8 -22,18 -27,30 -6,12 -9,25 -9,40 0,26 8,46 24,61 17,14 39,22 68,22 24,0 46,-6 67,-19 20,-12 41,-30 62,-54l0 -105z"/>
  <path id="14" class="fil0" d="M12550 1747c0,20 -1,36 -4,47 -2,10 -6,18 -10,22 -4,5 -10,9 -18,12 -8,3 -17,6 -28,9 -11,2 -22,4 -35,6 -13,1 -25,2 -38,2 -35,0 -64,-5 -90,-13 -25,-9 -46,-22 -62,-40 -17,-19 -29,-41 -37,-69 -8,-27 -12,-60 -12,-98l0 -314 -74 0c-9,0 -15,-5 -20,-16 -5,-11 -7,-29 -7,-54 0,-14 1,-25 2,-34 1,-9 3,-16 5,-22 2,-5 5,-9 9,-11 3,-2 7,-4 12,-4l73 0 0 -137c0,-4 2,-8 4,-12 3,-4 7,-7 14,-9 7,-3 16,-5 27,-6 11,-1 25,-2 42,-2 17,0 31,1 42,2 11,1 20,3 27,6 6,2 11,5 13,9 3,4 5,8 5,12l0 137 133 0c4,0 8,2 12,4 3,2 6,6 8,11 3,6 4,13 5,22 2,9 2,20 2,34 0,25 -2,43 -7,54 -4,11 -11,16 -20,16l-133 0 0 288c0,34 5,59 15,76 11,16 30,25 57,25 9,0 17,-1 24,-3 8,-1 14,-3 20,-5 6,-2 10,-4 14,-6 4,-1 8,-2 11,-2 3,0 5,1 8,2 2,2 4,5 6,10 1,5 2,11 3,20 2,8 2,18 2,31z"/>
  <g id="_1990330682864">
   <path class="fil1" d="M1640 2056c-30,-21 -57,-47 -78,-78l-170 104c37,58 86,107 144,144l104 -170z"/>
   <path class="fil1" d="M983 1846c6,124 38,240 92,344l176 -95c-40,-77 -64,-163 -68,-254l-200 5z"/>
   <path class="fil1" d="M787 1271c-78,149 -125,316 -131,493l199 5c6,-145 44,-281 108,-402l-176 -96z"/>
   <path class="fil1" d="M2408 2944c-165,87 -352,140 -550,147l5 199c231,-8 448,-69 640,-171l-95 -175z"/>
   <path class="fil1" d="M1755 328c-231,8 -448,69 -640,171l95 176c165,-88 352,-140 551,-148l-6 -199z"/>
   <path class="fil1" d="M1866 200c252,8 489,75 699,186l95 -175c-237,-126 -504,-201 -789,-211l-5 200z"/>
   <path class="fil1" d="M1752 3419c-252,-9 -489,-76 -698,-187l-96 175c237,126 504,202 789,211l5 -199z"/>
   <path class="fil1" d="M1938 2079c-32,16 -68,26 -106,29l5 199c71,-4 137,-22 197,-52l-96 -176z"/>
   <path class="fil1" d="M1781 1311c-70,4 -137,23 -197,53l96 175c32,-16 68,-25 106,-28l-5 -200z"/>
   <path class="fil1" d="M1769 2763c-145,-6 -281,-44 -402,-108l-96 176c148,78 316,125 493,132l5 -200z"/>
   <path class="fil1" d="M328 1863c8,231 69,448 171,640l176 -95c-88,-165 -140,-352 -148,-550l-199 5z"/>
   <path class="fil1" d="M1849 855c145,6 281,44 403,108l95 -176c-148,-78 -315,-125 -493,-131l-5 199z"/>
   <path class="fil1" d="M1364 1112c-101,65 -187,151 -252,252l170 105c49,-75 112,-138 187,-187l-105 -170z"/>
   <path class="fil1" d="M211 958c-126,237 -201,505 -211,789l200 5c8,-252 75,-489 187,-698l-176 -96z"/>
   <path class="fil1" d="M1536 1392c-58,37 -107,86 -144,144l170 104c21,-30 48,-57 78,-78l-104 -170z"/>
   <path class="fil1" d="M2095 2367c-77,40 -163,64 -254,69l5 199c124,-5 240,-38 344,-92l-95 -176z"/>
   <path class="fil1" d="M1297 2615c-118,-75 -219,-176 -294,-294l-170 104c91,145 215,269 360,361l104 -171z"/>
   <path class="fil1" d="M1772 983c-123,6 -240,38 -344,93l95 175c77,-40 163,-64 255,-68l-6 -200z"/>
   <path class="fil1" d="M499 1115c-102,192 -163,410 -171,640l199 6c8,-199 60,-385 148,-551l-176 -95z"/>
   <path class="fil1" d="M0 1871c10,285 85,552 211,789l175 -96c-111,-209 -178,-446 -186,-698l-200 5z"/>
   <path class="fil1" d="M1786 2108c-38,-3 -74,-13 -106,-29l-96 176c60,30 127,48 197,52l5 -199z"/>
   <path class="fil1" d="M1832 1511c38,3 74,12 106,28l96 -175c-60,-30 -126,-49 -197,-53l-5 200z"/>
   <path class="fil1" d="M1075 1428c-54,104 -86,221 -92,345l200 5c4,-92 28,-178 68,-255l-176 -95z"/>
   <path class="fil1" d="M655 1854c7,178 54,345 132,493l176 -96c-64,-121 -102,-257 -108,-402l-200 5z"/>
   <path class="fil1" d="M1022 553c-189,119 -350,280 -469,469l170 104c103,-162 241,-300 403,-403l-104 -170z"/>
   <path class="fil1" d="M955 3175c-207,-130 -382,-305 -511,-512l-171 104c146,234 344,432 578,578l104 -170z"/>
   <path class="fil1" d="M1193 833c-145,92 -269,215 -360,360l170 104c75,-118 176,-219 294,-294l-104 -170z"/>
   <path class="fil1" d="M1469 2336c-75,-48 -138,-112 -187,-187l-170 105c65,101 151,187 252,252l105 -170z"/>
   <path class="fil1" d="M1311 1837c4,71 23,137 53,197l175 -96c-16,-32 -25,-68 -28,-106l-200 5z"/>
   <path class="fil1" d="M1761 3091c-199,-7 -386,-60 -551,-147l-95 175c192,102 409,163 640,172l6 -200z"/>
   <path class="fil1" d="M1858 527c198,8 385,60 550,148l95 -176c-192,-102 -409,-163 -640,-171l-5 199z"/>
   <path class="fil1" d="M1747 0c-284,10 -552,85 -789,211l96 175c209,-111 446,-178 698,-187l-5 -199z"/>
   <path class="fil1" d="M2565 3232c-210,111 -447,178 -699,187l5 199c285,-9 552,-85 789,-211l-95 -175z"/>
   <path class="fil1" d="M1778 2436c-92,-5 -178,-29 -255,-69l-95 176c104,54 221,87 344,92l6 -199z"/>
   <path class="fil1" d="M1364 1584c-30,60 -49,127 -53,197l200 5c3,-38 12,-74 28,-106l-175 -96z"/>
   <path class="fil1" d="M1841 1183c91,4 177,28 254,68l95 -175c-104,-55 -220,-87 -344,-93l-5 200z"/>
   <path class="fil1" d="M2252 2655c-122,64 -258,102 -403,108l5 200c178,-7 345,-54 493,-132l-95 -176z"/>
   <path class="fil1" d="M1764 655c-177,7 -345,54 -493,132l96 176c121,-64 257,-102 402,-108l-5 -200z"/>
   <path class="fil1" d="M1126 2895c-162,-102 -300,-240 -403,-403l-170 104c119,190 279,350 469,469l104 -170z"/>
   <path class="fil1" d="M851 273c-234,146 -432,344 -577,578l170 104c129,-207 304,-382 511,-511l-104 -171z"/>
  </g>
  <path id="für_x0020_die_x0020_Uni_x0020_Heidelberg" class="fil0" d="M3095 2627c0,2 -1,3 -2,5 0,1 -2,2 -4,3 -2,1 -5,2 -8,2 -3,1 -7,1 -12,1 -5,0 -9,0 -13,-1 -3,0 -6,-1 -8,-2 -2,-1 -3,-2 -4,-3 -1,-2 -2,-3 -2,-5l0 -43c-17,19 -34,33 -52,43 -19,10 -39,15 -60,15 -24,0 -44,-4 -60,-13 -17,-10 -31,-22 -41,-38 -10,-15 -18,-33 -23,-55 -4,-21 -7,-43 -7,-66 0,-28 3,-53 9,-75 6,-22 15,-41 27,-57 11,-16 26,-28 43,-36 17,-8 37,-13 60,-13 18,0 36,4 51,13 16,8 31,20 46,36l0 -186c0,-2 1,-4 2,-5 0,-2 2,-3 4,-4 3,-1 6,-1 10,-2 3,-1 8,-1 14,-1 6,0 10,0 14,1 4,1 7,1 9,2 2,1 4,2 5,4 1,1 2,3 2,5l0 475zm-60 -226c-15,-20 -31,-35 -46,-46 -15,-10 -30,-15 -46,-15 -15,0 -28,3 -38,10 -11,8 -19,17 -26,29 -6,11 -11,25 -14,39 -3,15 -4,30 -4,45 0,16 1,32 3,48 3,15 7,29 13,41 7,12 15,22 25,29 10,7 23,11 38,11 8,0 16,-1 23,-3 7,-2 15,-6 22,-11 8,-5 16,-11 24,-19 8,-8 17,-18 26,-30l0 -128z"/>
  <path id="1" class="fil0" d="M3477 2452c0,9 -2,16 -7,20 -4,4 -10,6 -16,6l-211 0c0,18 2,34 6,48 3,15 9,27 18,37 8,10 19,18 32,24 13,5 30,8 49,8 15,0 29,-1 41,-4 12,-2 22,-5 31,-8 8,-3 15,-6 21,-8 6,-3 10,-4 13,-4 1,0 3,0 4,1 1,1 3,2 3,4 1,1 2,4 2,7 0,3 0,6 0,10 0,3 0,6 0,8 0,3 0,5 -1,6 0,2 -1,4 -2,5 -1,2 -2,3 -3,4 -1,2 -5,4 -11,7 -7,3 -15,5 -25,8 -11,3 -22,6 -36,8 -13,2 -28,3 -43,3 -26,0 -49,-3 -69,-11 -20,-7 -37,-18 -50,-32 -14,-15 -24,-33 -31,-55 -7,-22 -10,-47 -10,-77 0,-27 3,-52 11,-74 7,-22 17,-41 30,-56 14,-15 30,-27 49,-35 19,-9 41,-13 64,-13 25,0 47,4 64,12 18,8 33,19 44,33 11,14 20,30 25,48 6,19 8,38 8,59l0 11zm-59 -17c1,-31 -6,-56 -21,-73 -14,-18 -35,-27 -64,-27 -14,0 -27,3 -38,8 -11,6 -20,13 -28,22 -7,9 -13,20 -17,32 -4,12 -6,25 -7,38l175 0z"/>
  <path id="2" class="fil0" d="M3755 2326c0,6 0,10 0,13 0,4 -1,7 -1,9 -1,2 -2,3 -3,4 -1,2 -2,2 -4,2 -2,0 -5,0 -7,-2 -3,-1 -6,-2 -10,-3 -3,-1 -7,-2 -11,-3 -4,-1 -9,-1 -14,-1 -6,0 -12,1 -18,3 -5,3 -11,7 -18,12 -6,6 -12,13 -19,22 -7,9 -15,20 -23,33l0 212c0,2 -1,3 -2,5 -1,1 -2,2 -4,3 -3,1 -5,2 -9,2 -4,1 -9,1 -15,1 -6,0 -11,0 -14,-1 -4,0 -7,-1 -9,-2 -3,-1 -4,-2 -5,-3 -1,-2 -1,-3 -1,-5l0 -322c0,-1 0,-3 1,-4 0,-2 2,-3 4,-4 2,-1 5,-2 8,-2 4,-1 8,-1 13,-1 6,0 10,0 14,1 3,0 6,1 8,2 2,1 3,2 4,4 1,1 1,3 1,4l0 47c9,-13 17,-23 25,-31 8,-8 15,-15 22,-19 7,-5 13,-8 20,-10 7,-2 14,-3 21,-3 3,0 6,0 10,1 4,0 8,1 13,2 4,1 8,2 11,3 4,1 6,2 7,4 2,1 3,2 3,3 1,1 1,2 2,4 0,2 0,4 0,7 0,4 0,8 0,13z"/>
  <path id="3" class="fil0" d="M4342 2465c0,28 -5,53 -13,75 -8,22 -20,41 -35,56 -15,15 -34,27 -56,35 -21,7 -46,11 -74,11 -26,0 -49,-3 -70,-11 -21,-7 -39,-18 -54,-32 -15,-15 -26,-33 -34,-54 -8,-22 -12,-47 -12,-75l0 -287c0,-2 0,-4 1,-5 1,-1 3,-3 5,-3 2,-1 6,-2 9,-3 4,0 9,0 16,0 5,0 10,0 14,0 4,1 7,2 10,3 2,0 4,2 5,3 0,1 1,3 1,5l0 279c0,21 3,40 8,56 5,16 13,29 22,40 10,10 22,18 36,24 14,5 29,8 47,8 17,0 33,-3 47,-8 14,-5 26,-13 35,-24 10,-10 17,-23 22,-39 6,-15 8,-33 8,-54l0 -282c0,-2 1,-4 2,-5 1,-1 2,-3 5,-3 2,-1 5,-2 9,-3 4,0 9,0 15,0 6,0 11,0 15,0 4,1 7,2 9,3 2,0 4,2 5,3 1,1 2,3 2,5l0 282z"/>
  <path id="4" class="fil0" d="M4733 2627c0,2 0,3 -1,5 -1,1 -3,2 -5,3 -2,1 -5,2 -9,2 -4,1 -8,1 -14,1 -6,0 -11,0 -15,-1 -4,0 -7,-1 -9,-2 -2,-1 -4,-2 -5,-3 -1,-2 -1,-3 -1,-5l0 -188c0,-19 -1,-33 -4,-45 -3,-11 -7,-20 -13,-29 -5,-8 -12,-14 -21,-18 -8,-4 -18,-7 -30,-7 -15,0 -29,6 -44,16 -15,11 -30,26 -46,46l0 225c0,2 0,3 -1,5 -1,1 -3,2 -5,3 -2,1 -5,2 -9,2 -4,1 -9,1 -15,1 -6,0 -10,0 -14,-1 -4,0 -7,-1 -9,-2 -2,-1 -4,-2 -5,-3 -1,-2 -1,-3 -1,-5l0 -322c0,-1 0,-3 1,-4 1,-2 2,-3 4,-4 2,-1 5,-2 8,-2 4,-1 8,-1 14,-1 5,0 9,0 13,1 3,0 6,1 8,2 2,1 3,2 4,4 1,1 1,3 1,4l0 43c18,-20 36,-35 54,-45 18,-9 36,-14 55,-14 21,0 39,4 54,11 14,7 26,17 35,29 9,12 15,27 19,43 4,16 6,36 6,59l0 196z"/>
  <path id="5" class="fil0" d="M4900 2627c0,2 0,3 -1,5 -1,1 -3,2 -5,3 -2,1 -5,2 -9,2 -4,1 -9,1 -15,1 -5,0 -10,0 -14,-1 -4,0 -7,-1 -9,-2 -2,-1 -4,-2 -5,-3 -1,-2 -1,-3 -1,-5l0 -322c0,-1 0,-3 1,-4 1,-2 3,-3 5,-4 2,-1 5,-1 9,-2 4,0 9,-1 14,-1 6,0 11,1 15,1 4,1 7,1 9,2 2,1 4,2 5,4 1,1 1,3 1,4l0 322zm7 -430c0,14 -3,23 -8,28 -5,5 -15,8 -29,8 -14,0 -24,-2 -29,-7 -5,-5 -7,-14 -7,-28 0,-14 2,-23 8,-28 5,-5 14,-8 29,-8 13,0 23,2 28,7 5,5 8,14 8,28z"/>
  <path id="6" class="fil0" d="M5272 2305c0,1 0,2 0,3 0,1 -1,2 -1,3 0,1 0,3 -1,4 0,2 0,3 -1,5l-109 305c-1,3 -3,5 -4,7 -2,1 -4,3 -7,3 -3,1 -7,2 -12,3 -5,0 -11,0 -18,0 -7,0 -13,0 -18,-1 -4,0 -8,-1 -11,-2 -3,-1 -6,-2 -7,-4 -2,-1 -3,-3 -4,-6l-109 -305c-1,-3 -2,-6 -3,-8 0,-2 -1,-3 -1,-5 0,-1 0,-2 0,-2 0,-2 1,-4 1,-5 1,-2 3,-3 5,-4 2,-1 6,-1 9,-1 4,-1 8,-1 14,-1 7,0 12,0 17,1 4,0 7,1 9,2 2,1 4,2 5,3 1,2 2,4 3,6l91 265 1 4 1 -4 90 -265c0,-2 1,-4 3,-6 1,-1 2,-2 5,-3 2,-1 5,-2 9,-2 4,-1 9,-1 15,-1 6,0 10,0 14,1 4,0 6,1 8,2 2,0 4,2 5,3 1,1 1,3 1,5z"/>
  <path id="7" class="fil0" d="M5605 2452c0,9 -2,16 -7,20 -4,4 -10,6 -16,6l-211 0c0,18 2,34 6,48 3,15 9,27 18,37 8,10 19,18 32,24 13,5 30,8 49,8 15,0 29,-1 41,-4 12,-2 22,-5 31,-8 8,-3 15,-6 21,-8 6,-3 10,-4 13,-4 1,0 3,0 4,1 1,1 3,2 3,4 1,1 1,4 2,7 0,3 0,6 0,10 0,3 0,6 0,8 0,3 -1,5 -1,6 0,2 -1,4 -2,5 -1,2 -2,3 -3,4 -1,2 -5,4 -11,7 -7,3 -15,5 -25,8 -11,3 -23,6 -36,8 -13,2 -28,3 -43,3 -26,0 -49,-3 -69,-11 -20,-7 -37,-18 -50,-32 -14,-15 -24,-33 -31,-55 -7,-22 -10,-47 -10,-77 0,-27 3,-52 11,-74 7,-22 17,-41 30,-56 14,-15 30,-27 49,-35 19,-9 40,-13 64,-13 25,0 47,4 64,12 18,8 33,19 44,33 11,14 20,30 25,48 6,19 8,38 8,59l0 11zm-59 -17c1,-31 -6,-56 -21,-73 -14,-18 -35,-27 -64,-27 -14,0 -27,3 -38,8 -11,6 -20,13 -28,22 -7,9 -13,20 -17,32 -4,12 -6,25 -7,38l175 0z"/>
  <path id="8" class="fil0" d="M5883 2326c0,6 0,10 0,13 0,4 -1,7 -1,9 -1,2 -2,3 -3,4 -1,2 -3,2 -4,2 -2,0 -5,0 -7,-2 -3,-1 -6,-2 -10,-3 -3,-1 -7,-2 -11,-3 -5,-1 -9,-1 -14,-1 -6,0 -12,1 -18,3 -5,3 -11,7 -18,12 -6,6 -13,13 -19,22 -7,9 -15,20 -23,33l0 212c0,2 -1,3 -2,5 -1,1 -2,2 -4,3 -3,1 -6,2 -9,2 -4,1 -9,1 -15,1 -6,0 -11,0 -14,-1 -4,0 -7,-1 -10,-2 -2,-1 -3,-2 -4,-3 -1,-2 -1,-3 -1,-5l0 -322c0,-1 0,-3 1,-4 0,-2 2,-3 4,-4 2,-1 5,-2 8,-2 3,-1 8,-1 13,-1 6,0 10,0 13,1 4,0 7,1 9,2 1,1 3,2 4,4 1,1 1,3 1,4l0 47c9,-13 17,-23 25,-31 8,-8 15,-15 22,-19 7,-5 13,-8 20,-10 7,-2 14,-3 21,-3 3,0 6,0 10,1 4,0 8,1 13,2 4,1 8,2 11,3 4,1 6,2 7,4 2,1 3,2 3,3 1,1 1,2 2,4 0,2 0,4 0,7 0,4 0,8 0,13z"/>
  <path id="9" class="fil0" d="M6140 2539c0,17 -3,31 -9,44 -7,13 -15,24 -26,33 -12,8 -25,15 -40,20 -16,4 -33,6 -51,6 -12,0 -23,0 -33,-2 -10,-2 -20,-4 -28,-7 -8,-3 -15,-5 -21,-8 -5,-3 -10,-6 -12,-8 -3,-3 -5,-6 -6,-10 -1,-5 -2,-10 -2,-18 0,-4 1,-8 1,-11 0,-3 1,-6 2,-8 0,-2 2,-3 3,-4 1,-1 3,-1 4,-1 3,0 7,1 12,5 5,3 11,6 19,10 7,4 16,8 26,11 11,3 22,5 36,5 10,0 19,-1 27,-4 8,-2 15,-5 21,-9 6,-4 10,-10 13,-16 4,-7 5,-14 5,-23 0,-9 -2,-17 -7,-23 -4,-6 -10,-12 -18,-16 -8,-5 -16,-9 -26,-13 -9,-4 -19,-8 -29,-12 -10,-4 -20,-8 -30,-13 -9,-6 -18,-12 -25,-19 -8,-8 -14,-16 -19,-27 -4,-10 -7,-22 -7,-36 0,-13 3,-25 8,-37 5,-11 12,-21 22,-30 9,-9 22,-16 36,-21 15,-5 32,-8 52,-8 8,0 17,1 25,2 9,2 16,4 23,6 7,2 13,5 18,7 5,3 9,5 11,7 3,2 4,4 5,5 1,2 2,3 2,5 0,2 1,4 1,7 0,2 1,5 1,9 0,4 -1,8 -1,11 0,3 -1,5 -2,7 -1,2 -2,3 -3,4 -1,1 -2,1 -4,1 -2,0 -5,-1 -9,-4 -4,-2 -9,-5 -16,-8 -6,-3 -14,-6 -22,-9 -9,-2 -19,-4 -30,-4 -10,0 -19,1 -27,4 -7,2 -14,5 -19,9 -4,4 -8,9 -11,15 -2,6 -3,12 -3,18 0,10 2,17 7,24 5,6 11,12 18,16 8,5 17,9 26,13 10,4 20,8 30,12 10,4 20,9 30,14 10,5 19,11 26,18 8,7 14,15 19,25 4,10 7,22 7,36z"/>
  <path id="10" class="fil0" d="M6283 2627c0,2 0,3 -1,5 -1,1 -3,2 -5,3 -2,1 -5,2 -9,2 -4,1 -9,1 -15,1 -6,0 -10,0 -14,-1 -4,0 -7,-1 -9,-2 -2,-1 -4,-2 -5,-3 -1,-2 -1,-3 -1,-5l0 -322c0,-1 0,-3 1,-4 1,-2 3,-3 5,-4 2,-1 5,-1 9,-2 4,0 8,-1 14,-1 6,0 11,1 15,1 4,1 7,1 9,2 2,1 4,2 5,4 1,1 1,3 1,4l0 322zm7 -430c0,14 -3,23 -8,28 -6,5 -15,8 -29,8 -14,0 -24,-2 -29,-7 -5,-5 -7,-14 -7,-28 0,-14 2,-23 7,-28 6,-5 15,-8 29,-8 14,0 24,2 29,7 5,5 8,14 8,28z"/>
  <path id="11" class="fil0" d="M6558 2603c0,7 0,12 -1,16 -1,5 -2,8 -4,9 -2,2 -5,4 -9,6 -4,1 -8,3 -13,4 -5,1 -10,2 -15,3 -6,0 -11,1 -17,1 -16,0 -31,-3 -43,-7 -11,-4 -21,-11 -29,-20 -7,-9 -13,-20 -16,-34 -4,-13 -5,-30 -5,-48l0 -187 -46 0c-3,0 -6,-2 -8,-6 -2,-4 -3,-10 -3,-19 0,-4 0,-8 0,-11 1,-3 2,-6 3,-8 1,-2 2,-3 3,-4 2,-1 4,-1 6,-1l45 0 0 -77c0,-1 0,-3 1,-4 1,-2 2,-3 5,-4 2,-1 5,-2 9,-2 3,-1 8,-1 14,-1 6,0 11,0 15,1 4,0 6,1 9,2 2,1 3,2 4,4 1,1 2,3 2,4l0 77 82 0c2,0 3,0 5,1 1,1 2,2 3,4 1,2 2,5 3,8 0,3 0,7 0,11 0,9 -1,15 -3,19 -2,4 -5,6 -8,6l-82 0 0 178c0,22 3,39 10,50 6,12 18,17 34,17 6,0 11,0 15,-1 4,-1 8,-3 11,-4 4,-1 6,-2 9,-3 2,-1 4,-2 6,-2 1,0 2,0 4,1 1,1 1,2 2,3 1,2 1,4 2,7 0,3 0,7 0,11z"/>
  <path id="12" class="fil0" d="M6870 2627c0,3 -1,5 -3,7 -2,1 -5,2 -8,3 -3,1 -8,1 -15,1 -6,0 -11,0 -14,-1 -4,-1 -7,-2 -8,-3 -2,-2 -3,-4 -3,-7l0 -32c-14,15 -30,27 -47,35 -17,8 -36,12 -55,12 -17,0 -32,-2 -46,-6 -13,-5 -25,-11 -35,-19 -9,-9 -17,-19 -22,-31 -6,-12 -8,-26 -8,-41 0,-19 3,-34 11,-48 7,-13 18,-24 32,-33 13,-9 30,-15 50,-20 20,-4 43,-6 68,-6l44 0 0 -25c0,-13 -1,-24 -4,-33 -2,-10 -7,-18 -12,-24 -6,-6 -14,-11 -23,-14 -9,-4 -21,-5 -34,-5 -15,0 -28,1 -39,5 -12,4 -22,7 -31,12 -8,4 -16,8 -21,11 -6,4 -11,5 -13,5 -2,0 -4,0 -5,-1 -2,-1 -3,-2 -4,-4 -1,-2 -2,-5 -2,-8 -1,-3 -1,-6 -1,-9 0,-6 0,-11 1,-14 1,-4 3,-7 6,-10 3,-3 9,-7 17,-11 8,-4 17,-8 27,-12 10,-3 21,-6 33,-8 12,-3 25,-4 37,-4 23,0 43,3 59,8 16,5 29,13 39,23 10,10 17,23 22,38 4,15 7,32 7,52l0 217zm-59 -147l-50 0c-16,0 -30,1 -42,4 -12,3 -22,7 -30,12 -8,6 -13,12 -17,20 -4,7 -6,16 -6,26 0,16 6,30 16,39 11,10 26,15 45,15 15,0 29,-4 43,-11 13,-8 27,-20 41,-37l0 -68zm-92 -279c0,13 -2,22 -7,27 -5,5 -14,7 -27,7 -12,0 -21,-2 -26,-7 -4,-4 -6,-13 -6,-26 0,-13 2,-22 6,-27 5,-5 14,-7 27,-7 13,0 22,2 26,7 5,5 7,13 7,26zm127 0c0,13 -3,22 -8,27 -4,5 -13,7 -26,7 -13,0 -22,-2 -26,-7 -5,-4 -7,-13 -7,-26 0,-13 2,-22 7,-27 5,-5 13,-7 26,-7 13,0 22,2 27,7 4,5 7,13 7,26z"/>
  <path id="13" class="fil0" d="M7138 2603c0,7 -1,12 -2,16 -1,5 -2,8 -4,9 -2,2 -5,4 -9,6 -3,1 -8,3 -13,4 -4,1 -10,2 -15,3 -6,0 -11,1 -16,1 -17,0 -31,-3 -43,-7 -12,-4 -22,-11 -29,-20 -8,-9 -13,-20 -17,-34 -3,-13 -5,-30 -5,-48l0 -187 -45 0c-4,0 -7,-2 -9,-6 -2,-4 -3,-10 -3,-19 0,-4 0,-8 1,-11 0,-3 1,-6 2,-8 1,-2 2,-3 4,-4 1,-1 3,-1 5,-1l45 0 0 -77c0,-1 0,-3 1,-4 1,-2 3,-3 5,-4 2,-1 5,-2 9,-2 4,-1 9,-1 14,-1 6,0 11,0 15,1 4,0 7,1 9,2 2,1 4,2 5,4 1,1 1,3 1,4l0 77 82 0c2,0 4,0 5,1 1,1 3,2 4,4 1,2 2,5 2,8 0,3 1,7 1,11 0,9 -1,15 -3,19 -3,4 -5,6 -9,6l-82 0 0 178c0,22 3,39 10,50 6,12 18,17 35,17 5,0 10,0 14,-1 5,-1 8,-3 12,-4 3,-1 6,-2 8,-3 3,-1 5,-2 7,-2 1,0 2,0 3,1 1,1 2,2 2,3 1,2 2,4 2,7 0,3 1,7 1,11z"/>
  <path id="14" class="fil0" d="M7720 2627c0,1 0,3 -1,5 -1,1 -3,2 -5,3 -2,1 -6,2 -10,2 -4,1 -8,1 -14,1 -6,0 -11,0 -15,-1 -4,0 -7,-1 -10,-2 -2,-1 -4,-2 -5,-3 0,-2 -1,-4 -1,-5l0 -205 -210 0 0 205c0,1 0,3 -1,5 -1,1 -3,2 -5,3 -3,1 -6,2 -10,2 -4,1 -9,1 -15,1 -5,0 -10,0 -14,-1 -4,0 -7,-1 -10,-2 -2,-1 -4,-2 -5,-3 -1,-2 -1,-4 -1,-5l0 -444c0,-2 0,-4 1,-5 1,-1 3,-3 5,-3 3,-1 6,-2 10,-3 4,0 9,0 14,0 6,0 11,0 15,0 4,1 7,2 10,3 2,0 4,2 5,3 1,1 1,3 1,5l0 185 210 0 0 -185c0,-2 1,-4 1,-5 1,-1 3,-3 5,-3 3,-1 6,-2 10,-3 4,0 9,0 15,0 6,0 10,0 14,0 4,1 8,2 10,3 2,0 4,2 5,3 1,1 1,3 1,5l0 444z"/>
  <path id="15" class="fil0" d="M8110 2452c0,9 -2,16 -7,20 -4,4 -10,6 -16,6l-211 0c0,18 2,34 6,48 3,15 9,27 17,37 9,10 20,18 33,24 13,5 30,8 49,8 15,0 29,-1 41,-4 11,-2 22,-5 30,-8 9,-3 16,-6 22,-8 6,-3 10,-4 13,-4 1,0 3,0 4,1 1,1 2,2 3,4 1,1 1,4 2,7 0,3 0,6 0,10 0,3 0,6 0,8 0,3 -1,5 -1,6 0,2 -1,4 -2,5 -1,2 -2,3 -3,4 -1,2 -5,4 -12,7 -6,3 -14,5 -25,8 -10,3 -22,6 -35,8 -13,2 -28,3 -43,3 -26,0 -49,-3 -69,-11 -20,-7 -37,-18 -50,-32 -14,-15 -24,-33 -31,-55 -7,-22 -10,-47 -10,-77 0,-27 3,-52 10,-74 8,-22 18,-41 31,-56 14,-15 30,-27 49,-35 19,-9 40,-13 64,-13 25,0 47,4 64,12 18,8 33,19 44,33 11,14 20,30 25,48 5,19 8,38 8,59l0 11zm-59 -17c1,-31 -6,-56 -21,-73 -14,-18 -36,-27 -64,-27 -15,0 -27,3 -38,8 -11,6 -20,13 -28,22 -7,9 -13,20 -17,32 -4,12 -6,25 -7,38l175 0z"/>
  <path id="16" class="fil0" d="M8260 2627c0,2 -1,3 -2,5 -1,1 -2,2 -4,3 -3,1 -6,2 -9,2 -4,1 -9,1 -15,1 -6,0 -11,0 -14,-1 -4,0 -7,-1 -10,-2 -2,-1 -4,-2 -4,-3 -1,-2 -2,-3 -2,-5l0 -322c0,-1 1,-3 2,-4 0,-2 2,-3 4,-4 3,-1 6,-1 10,-2 3,0 8,-1 14,-1 6,0 11,1 15,1 3,1 6,1 9,2 2,1 3,2 4,4 1,1 2,3 2,4l0 322zm6 -430c0,14 -2,23 -8,28 -5,5 -15,8 -29,8 -14,0 -23,-2 -28,-7 -5,-5 -8,-14 -8,-28 0,-14 3,-23 8,-28 5,-5 15,-8 29,-8 14,0 23,2 29,7 5,5 7,14 7,28z"/>
  <path id="17" class="fil0" d="M8643 2627c0,2 0,3 -1,5 -1,1 -2,2 -4,3 -2,1 -5,2 -8,2 -4,1 -8,1 -13,1 -5,0 -9,0 -12,-1 -3,0 -6,-1 -8,-2 -2,-1 -4,-2 -5,-3 -1,-2 -1,-3 -1,-5l0 -43c-17,19 -35,33 -53,43 -18,10 -38,15 -60,15 -23,0 -43,-4 -60,-13 -17,-10 -30,-22 -41,-38 -10,-15 -17,-33 -22,-55 -5,-21 -7,-43 -7,-66 0,-28 3,-53 9,-75 6,-22 14,-41 26,-57 12,-16 26,-28 43,-36 18,-8 37,-13 60,-13 19,0 36,4 52,13 15,8 31,20 46,36l0 -186c0,-2 0,-4 1,-5 1,-2 3,-3 5,-4 2,-1 5,-1 9,-2 4,-1 8,-1 14,-1 6,0 11,0 15,1 4,1 7,1 9,2 2,1 3,2 5,4 1,1 1,3 1,5l0 475zm-59 -226c-16,-20 -31,-35 -46,-46 -15,-10 -31,-15 -47,-15 -15,0 -27,3 -38,10 -10,8 -19,17 -25,29 -7,11 -11,25 -14,39 -3,15 -5,30 -5,45 0,16 1,32 4,48 2,15 7,29 13,41 6,12 14,22 24,29 11,7 23,11 39,11 8,0 15,-1 23,-3 7,-2 14,-6 22,-11 7,-5 15,-11 24,-19 8,-8 17,-18 26,-30l0 -128z"/>
  <path id="18" class="fil0" d="M9026 2452c0,9 -3,16 -7,20 -5,4 -10,6 -16,6l-211 0c0,18 2,34 5,48 4,15 10,27 18,37 8,10 19,18 32,24 14,5 30,8 49,8 16,0 29,-1 41,-4 12,-2 22,-5 31,-8 9,-3 16,-6 22,-8 5,-3 9,-4 12,-4 2,0 3,0 5,1 1,1 2,2 3,4 0,1 1,4 1,7 1,3 1,6 1,10 0,3 0,6 -1,8 0,3 0,5 0,6 -1,2 -1,4 -2,5 -1,2 -2,3 -3,4 -2,2 -6,4 -12,7 -6,3 -15,5 -25,8 -10,3 -22,6 -35,8 -14,2 -28,3 -43,3 -27,0 -50,-3 -70,-11 -19,-7 -36,-18 -50,-32 -13,-15 -23,-33 -30,-55 -7,-22 -11,-47 -11,-77 0,-27 4,-52 11,-74 7,-22 18,-41 31,-56 13,-15 30,-27 49,-35 19,-9 40,-13 64,-13 25,0 46,4 64,12 18,8 32,19 44,33 11,14 19,30 25,48 5,19 8,38 8,59l0 11zm-59 -17c0,-31 -7,-56 -21,-73 -15,-18 -36,-27 -64,-27 -15,0 -28,3 -39,8 -11,6 -20,13 -27,22 -8,9 -13,20 -17,32 -4,12 -7,25 -7,38l175 0z"/>
  <path id="19" class="fil0" d="M9175 2627c0,2 0,3 -1,5 -1,1 -3,2 -5,3 -2,1 -5,2 -9,2 -4,1 -9,1 -14,1 -6,0 -11,0 -15,-1 -4,0 -7,-1 -9,-2 -2,-1 -4,-2 -5,-3 -1,-2 -1,-3 -1,-5l0 -477c0,-2 0,-4 1,-5 1,-1 3,-3 5,-4 2,0 5,-1 9,-2 4,0 9,0 15,0 5,0 10,0 14,0 4,1 7,2 9,2 2,1 4,3 5,4 1,1 1,3 1,5l0 477z"/>
  <path id="20" class="fil0" d="M9579 2462c0,28 -3,53 -9,75 -6,22 -15,41 -27,57 -11,15 -26,28 -43,36 -17,8 -37,12 -59,12 -10,0 -19,-1 -28,-3 -9,-2 -17,-5 -25,-9 -9,-5 -17,-11 -25,-18 -9,-7 -18,-15 -27,-25l0 40c0,2 0,3 -1,5 -1,1 -3,2 -5,3 -2,1 -5,2 -8,2 -3,1 -7,1 -12,1 -5,0 -9,0 -13,-1 -3,0 -6,-1 -8,-2 -2,-1 -3,-2 -4,-3 -1,-2 -1,-3 -1,-5l0 -477c0,-2 0,-4 1,-5 1,-1 2,-3 5,-4 2,0 5,-1 9,-2 4,0 8,0 14,0 6,0 11,0 15,0 4,1 7,2 9,2 2,1 4,3 5,4 1,1 1,3 1,5l0 192c10,-10 19,-18 28,-25 9,-6 17,-12 26,-16 8,-4 17,-7 25,-9 9,-2 18,-3 28,-3 23,0 43,5 59,14 17,9 30,22 40,37 11,16 18,34 23,55 5,21 7,43 7,67zm-61 7c0,-17 -1,-33 -4,-48 -2,-16 -7,-30 -13,-42 -6,-12 -14,-21 -25,-28 -10,-8 -23,-11 -38,-11 -7,0 -15,1 -22,3 -8,2 -15,6 -23,11 -8,5 -15,11 -24,19 -8,8 -17,18 -26,30l0 128c16,20 32,35 46,45 15,11 31,16 47,16 14,0 27,-4 37,-11 11,-7 19,-16 26,-28 7,-12 11,-25 14,-40 3,-15 5,-30 5,-44z"/>
  <path id="21" class="fil0" d="M9941 2452c0,9 -2,16 -7,20 -4,4 -10,6 -16,6l-211 0c0,18 2,34 6,48 3,15 9,27 18,37 8,10 19,18 32,24 13,5 30,8 49,8 15,0 29,-1 41,-4 12,-2 22,-5 31,-8 8,-3 16,-6 21,-8 6,-3 10,-4 13,-4 2,0 3,0 4,1 2,1 3,2 3,4 1,1 2,4 2,7 0,3 0,6 0,10 0,3 0,6 0,8 0,3 0,5 -1,6 0,2 -1,4 -2,5 0,2 -1,3 -3,4 -1,2 -5,4 -11,7 -7,3 -15,5 -25,8 -11,3 -22,6 -36,8 -13,2 -27,3 -43,3 -26,0 -49,-3 -69,-11 -20,-7 -37,-18 -50,-32 -14,-15 -24,-33 -31,-55 -7,-22 -10,-47 -10,-77 0,-27 4,-52 11,-74 7,-22 17,-41 31,-56 13,-15 29,-27 48,-35 19,-9 41,-13 64,-13 25,0 47,4 64,12 18,8 33,19 44,33 12,14 20,30 25,48 6,19 8,38 8,59l0 11zm-59 -17c1,-31 -6,-56 -20,-73 -15,-18 -36,-27 -65,-27 -14,0 -27,3 -38,8 -11,6 -20,13 -28,22 -7,9 -13,20 -17,32 -4,12 -6,25 -7,38l175 0z"/>
  <path id="22" class="fil0" d="M10220 2326c0,6 -1,10 -1,13 0,4 -1,7 -1,9 -1,2 -2,3 -3,4 -1,2 -2,2 -4,2 -2,0 -5,0 -7,-2 -3,-1 -6,-2 -10,-3 -3,-1 -7,-2 -11,-3 -4,-1 -9,-1 -14,-1 -6,0 -12,1 -18,3 -5,3 -11,7 -17,12 -7,6 -13,13 -20,22 -7,9 -15,20 -23,33l0 212c0,2 -1,3 -2,5 -1,1 -2,2 -4,3 -2,1 -5,2 -9,2 -4,1 -9,1 -15,1 -6,0 -10,0 -14,-1 -4,0 -7,-1 -9,-2 -3,-1 -4,-2 -5,-3 -1,-2 -1,-3 -1,-5l0 -322c0,-1 0,-3 1,-4 0,-2 2,-3 4,-4 2,-1 5,-2 8,-2 4,-1 8,-1 14,-1 5,0 9,0 13,1 3,0 6,1 8,2 2,1 3,2 4,4 1,1 1,3 1,4l0 47c9,-13 17,-23 25,-31 8,-8 15,-15 22,-19 7,-5 14,-8 20,-10 7,-2 14,-3 21,-3 3,0 6,0 10,1 4,0 8,1 13,2 4,1 8,2 11,3 4,1 6,2 8,4 1,1 2,2 2,3 1,1 1,2 2,4 0,2 0,4 0,7 1,4 1,8 1,13z"/>
  <path id="23" class="fil0" d="M10545 2320c0,9 -1,15 -4,19 -2,3 -5,5 -8,5l-46 0c8,9 14,18 17,28 3,10 5,21 5,32 0,19 -3,35 -9,50 -6,14 -14,26 -25,36 -11,10 -25,17 -40,22 -15,6 -32,8 -51,8 -13,0 -25,-1 -37,-5 -12,-3 -21,-8 -27,-13 -4,4 -8,9 -10,15 -3,5 -4,12 -4,19 0,8 4,15 11,21 8,5 18,8 31,9l84 3c16,1 30,3 44,7 13,4 25,9 34,17 10,7 18,16 23,26 6,11 8,23 8,37 0,15 -3,29 -9,42 -6,13 -16,25 -28,35 -13,10 -29,18 -49,24 -20,6 -43,9 -70,9 -26,0 -48,-2 -66,-7 -18,-4 -33,-10 -45,-18 -12,-7 -20,-16 -25,-27 -6,-11 -8,-22 -8,-34 0,-8 1,-16 3,-23 2,-8 4,-15 8,-21 4,-7 9,-13 15,-19 6,-7 13,-13 20,-18 -11,-6 -20,-14 -26,-23 -5,-9 -8,-19 -8,-29 0,-15 3,-28 9,-39 6,-12 13,-22 22,-31 -8,-9 -14,-19 -18,-30 -4,-11 -6,-24 -6,-40 0,-18 3,-35 9,-49 6,-15 15,-27 26,-37 11,-10 24,-18 39,-23 16,-5 32,-8 50,-8 10,0 19,1 28,2 8,1 16,2 24,5l97 0c4,0 7,2 9,5 2,4 3,10 3,18zm-92 85c0,-22 -6,-39 -18,-51 -12,-13 -29,-19 -51,-19 -12,0 -22,2 -30,6 -9,4 -16,9 -21,16 -6,6 -10,14 -13,23 -3,8 -4,17 -4,27 0,21 6,38 18,50 12,12 29,18 51,18 11,0 21,-2 30,-6 9,-3 16,-8 21,-15 6,-6 10,-14 13,-23 2,-8 4,-17 4,-26zm29 254c0,-14 -6,-24 -17,-32 -11,-7 -26,-11 -46,-12l-83 -3c-7,6 -14,12 -18,17 -5,6 -9,11 -12,16 -3,4 -5,9 -6,14 -1,5 -1,10 -1,15 0,15 7,27 23,35 16,8 38,12 66,12 17,0 32,-2 44,-6 12,-3 22,-8 29,-13 8,-6 13,-12 16,-20 3,-7 5,-15 5,-23z"/>
 </g>
</svg>
